<svg width="340" height="175" viewBox="0 0 340 175" fill="none" xmlns="http://www.w3.org/2000/svg">
<rect width="340" height="175" rx="5" fill="#FCFCFC"/>
<rect x="2" y="2" width="336" height="171" rx="3" stroke="#1B322F" stroke-opacity="0.16" stroke-width="4"/>
<path d="M13.168 36H15.052L16 34.032C16.216 33.576 16.42 33.108 16.648 32.568H16.696C16.96 33.108 17.164 33.576 17.392 34.032L18.388 36H20.356L17.86 31.5L20.2 27.12H18.328L17.488 28.944C17.296 29.364 17.116 29.796 16.9 30.348H16.84C16.576 29.796 16.384 29.364 16.18 28.944L15.292 27.12H13.324L15.664 31.416L13.168 36ZM20.6914 36H22.5754L23.5234 34.032C23.7394 33.576 23.9434 33.108 24.1714 32.568H24.2194C24.4834 33.108 24.6874 33.576 24.9154 34.032L25.9114 36H27.8794L25.3834 31.5L27.7234 27.12H25.8514L25.0114 28.944C24.8194 29.364 24.6394 29.796 24.4234 30.348H24.3634C24.0994 29.796 23.9074 29.364 23.7034 28.944L22.8154 27.12H20.8474L23.1874 31.416L20.6914 36ZM34.6056 33.12V31.296H36.6816V33.12H34.6056ZM42.2616 33.12H38.1576V31.296H41.3256V29.976H38.1576V28.536H41.6016V27.156H34.8216C34.9776 26.832 35.1096 26.508 35.2176 26.172L33.7656 25.8C33.2496 27.348 32.3256 28.884 31.2456 29.796C31.5936 30 32.2056 30.48 32.4816 30.72C33.0456 30.156 33.6216 29.388 34.1136 28.536H36.6816V29.976H33.1776V33.12H31.2816V34.488H36.6816V37.056H38.1576V34.488H42.2616V33.12ZM45.4896 28.188H54.1416V26.916H49.8816V25.848H48.3936V26.916H44.1216V30.276C44.1216 32.028 44.0496 34.524 43.0536 36.228C43.3776 36.372 43.9776 36.768 44.2176 37.008C45.3096 35.16 45.4896 32.22 45.4896 30.276V28.188ZM50.9376 30.324V31.116H48.7536V30.324H50.9376ZM52.3536 32.196V30.324H54.0816V29.196H52.3536V28.404H50.9376V29.196H48.7536V28.404H47.4096V29.196H45.7896V30.324H47.4096V32.196H52.3536ZM51.3816 33.792C50.9856 34.176 50.4936 34.512 49.9416 34.776C49.3776 34.5 48.8976 34.176 48.5376 33.792H51.3816ZM52.5936 32.616L52.3416 32.676H45.8736V33.792H47.6616L47.0976 33.996C47.4816 34.512 47.9496 34.956 48.4776 35.328C47.5296 35.604 46.4736 35.772 45.3696 35.868C45.5856 36.168 45.8376 36.708 45.9456 37.068C47.3736 36.888 48.7176 36.6 49.8936 36.132C50.9376 36.6 52.1616 36.912 53.5416 37.08C53.7216 36.708 54.0936 36.156 54.3816 35.856C53.3016 35.76 52.3056 35.592 51.4296 35.34C52.2936 34.764 53.0016 34.02 53.4816 33.06L52.5936 32.616ZM58.3364 32.856C58.2404 33.864 58.0484 34.932 57.7004 35.64C58.0124 35.748 58.5404 36 58.7924 36.156C59.1404 35.388 59.3924 34.188 59.5124 33.06L58.3364 32.856ZM60.9404 33.072C61.2164 33.78 61.5284 34.704 61.6364 35.304L62.6924 34.92C62.5604 34.32 62.2484 33.444 61.9484 32.76L60.9404 33.072ZM60.6884 30.108C60.8324 30.372 60.9764 30.672 61.1084 30.972L59.9564 31.02C60.7124 30.048 61.5404 28.836 62.2004 27.792L61.0364 27.252C60.7604 27.84 60.3764 28.524 59.9684 29.196C59.8484 29.04 59.7044 28.884 59.5604 28.716C59.9924 28.056 60.4724 27.12 60.9044 26.304L59.6684 25.848C59.4644 26.484 59.1284 27.276 58.7924 27.936C58.6964 27.852 58.6004 27.768 58.5164 27.696L57.8324 28.668C58.3244 29.148 58.9004 29.784 59.2484 30.3C59.0564 30.576 58.8644 30.84 58.6844 31.068L57.8204 31.104L57.9404 32.34L59.6804 32.232V37.056H60.9164V32.148L61.5284 32.1C61.6004 32.328 61.6484 32.532 61.6844 32.712L62.6924 32.256C62.5604 31.572 62.0924 30.528 61.6364 29.712L60.6884 30.108ZM66.9404 33.276V35.148H64.3004V33.276H66.9404ZM62.9804 37.032H64.3004V36.396H66.9404V36.984H68.3084V32.016H62.9804V37.032ZM63.8324 29.664C64.5164 28.932 65.0924 28.116 65.5004 27.444C65.9324 28.116 66.5804 28.932 67.2644 29.664H63.8324ZM64.7804 26.004C64.1924 27.132 62.9684 28.704 61.7564 29.58C62.0324 29.892 62.3924 30.456 62.5724 30.828C62.9324 30.552 63.2804 30.24 63.6164 29.892V30.96H67.5644V29.976C67.8524 30.264 68.1524 30.528 68.4404 30.756C68.6804 30.312 69.0164 29.784 69.3164 29.424C68.1524 28.692 66.9404 27.264 66.1364 26.004H64.7804ZM80.9084 32.616H78.7364C78.7964 32.04 78.8564 31.38 78.9164 30.636C78.9404 30.456 78.9644 30.024 78.9644 30.024H73.5284C73.6244 29.604 73.7084 29.16 73.7924 28.716H79.6004V27.348H74.0444C74.1284 26.868 74.2124 26.4 74.2844 25.956L72.7964 25.824C72.5204 27.72 72.0284 30.204 71.6204 31.728L73.1324 31.848L73.2524 31.344H77.4044C77.3684 31.812 77.3324 32.232 77.2844 32.616H70.0964V33.984H77.0924C76.9364 34.836 76.7564 35.316 76.5404 35.496C76.3724 35.64 76.2044 35.664 75.9524 35.664C75.6044 35.664 74.8004 35.652 73.9724 35.58C74.2484 35.988 74.4524 36.588 74.4764 37.008C75.2684 37.044 76.0604 37.056 76.5164 37.008C77.0684 36.948 77.4164 36.828 77.7764 36.432C78.1124 36.072 78.3644 35.352 78.5684 33.984H80.9084V32.616ZM87.4484 26.424H82.1444V27.72H87.4484V26.424ZM85.8284 29.892V31.416H83.8964V29.892H85.8284ZM87.2084 32.7V28.62H82.5404V31.668C82.5404 33.048 82.4684 34.92 81.6764 36.204C81.9884 36.372 82.5764 36.816 82.8044 37.056C83.5484 35.88 83.8004 34.164 83.8724 32.7H87.2084ZM93.1124 29.88H89.2604V28.32C90.5564 28.008 91.9484 27.564 93.0404 27.036L91.7804 25.956C91.0844 26.376 89.9684 26.808 88.8524 27.132L87.8684 26.904V30.216C87.8684 31.992 87.7004 34.368 86.0324 36.06C86.3684 36.228 86.8964 36.72 87.0884 37.02C88.6844 35.424 89.1284 33.096 89.2364 31.26H90.6284V37.044H92.0444V31.26H93.1124V29.88ZM102.844 27.78H99.7244V27.18H102.844V27.78ZM102.844 29.34H99.7244V28.716H102.844V29.34ZM104.284 26.184H98.3444V30.336H104.284V26.184ZM96.2804 25.848C95.7764 26.652 94.7204 27.624 93.7844 28.2C94.0004 28.5 94.3484 29.088 94.4924 29.412C95.6204 28.68 96.8444 27.504 97.6364 26.4L96.2804 25.848ZM96.5924 28.464C95.8964 29.64 94.7204 30.804 93.6524 31.548C93.8684 31.896 94.2284 32.712 94.3364 33.024C94.6964 32.748 95.0564 32.412 95.4164 32.052V37.032H96.7964V30.516C97.1924 30.012 97.5524 29.508 97.8404 29.004L96.5924 28.464ZM104.92 32.712H103.288V32.028H104.68V30.864H97.7324V32.028H101.836V32.712H97.4444V33.924H99.1244L98.2364 34.512C98.7404 35.016 99.3524 35.724 99.6164 36.18L100.684 35.424C100.384 35.004 99.7964 34.38 99.3164 33.924H101.836V35.592C101.836 35.724 101.788 35.772 101.62 35.784C101.464 35.784 100.9 35.784 100.396 35.76C100.576 36.12 100.78 36.648 100.84 37.032C101.656 37.032 102.256 37.032 102.7 36.828C103.168 36.624 103.288 36.288 103.288 35.628V33.924H104.932L104.92 32.712ZM116.956 32.34V31.128H112.216V30.444H115.852V29.268H112.216V28.788C112.468 28.524 112.696 28.212 112.924 27.864H113.392C113.704 28.296 114.004 28.8 114.136 29.136L115.36 28.62C115.264 28.416 115.096 28.14 114.904 27.864H116.896V26.7H113.584C113.68 26.496 113.776 26.28 113.836 26.088L112.468 25.74C112.228 26.424 111.832 27.12 111.352 27.672V26.7H108.724C108.832 26.496 108.928 26.304 109.012 26.1L107.644 25.74C107.224 26.76 106.516 27.792 105.736 28.44C106.06 28.608 106.648 29.004 106.924 29.232C107.284 28.86 107.68 28.392 108.04 27.864H108.16C108.388 28.296 108.628 28.788 108.712 29.124L109.936 28.62C109.864 28.416 109.732 28.14 109.576 27.864H111.184C111.052 28.008 110.908 28.152 110.752 28.272C110.932 28.368 111.196 28.536 111.448 28.692H110.728V29.268H107.248V30.444H110.728V31.128H106.036V32.34H113.092V33.06H106.492V34.26H108.7L108.064 34.74C108.76 35.256 109.54 36 109.876 36.54L110.98 35.652C110.68 35.232 110.104 34.692 109.528 34.26H113.092V35.532C113.092 35.676 113.032 35.724 112.84 35.724C112.648 35.724 111.928 35.724 111.316 35.7C111.508 36.072 111.748 36.624 111.832 37.032C112.72 37.032 113.404 37.02 113.908 36.816C114.424 36.6 114.568 36.264 114.568 35.556V34.26H116.596V33.06H114.568V32.34H116.956ZM122.86 27.624L122.872 29.16C124.36 29.292 126.508 29.292 127.972 29.16V27.624C126.688 27.78 124.324 27.828 122.86 27.624ZM122.452 32.58C122.332 33.132 122.248 33.636 122.248 34.128C122.248 35.34 123.22 36.084 125.272 36.084C126.616 36.084 127.576 35.988 128.344 35.844L128.308 34.236C127.276 34.452 126.4 34.548 125.332 34.548C124.132 34.548 123.676 34.236 123.676 33.708C123.676 33.384 123.724 33.096 123.82 32.712L122.452 32.58ZM119.368 26.7C119.368 27.072 119.296 27.528 119.248 27.864C119.116 28.776 118.756 30.78 118.756 32.568C118.756 34.176 118.984 35.628 119.224 36.456L120.592 36.36C120.58 36.192 120.58 36 120.568 35.868C120.568 35.748 120.604 35.484 120.64 35.316C120.76 34.68 121.156 33.396 121.492 32.4L120.748 31.824C120.58 32.208 120.388 32.604 120.22 33.024C120.184 32.772 120.172 32.484 120.172 32.256C120.172 31.068 120.58 28.692 120.748 27.9C120.796 27.684 120.94 27.084 121.036 26.844L119.368 26.7ZM132.232 25.872C131.644 27.588 130.648 29.292 129.604 30.396C129.832 30.732 130.216 31.536 130.336 31.872C130.636 31.548 130.936 31.176 131.224 30.768V37.044H132.604V28.464C132.964 27.744 133.288 27 133.552 26.28L132.232 25.872ZM134.452 33.672C134.152 34.368 133.564 35.292 132.988 35.88C133.3 36.048 133.78 36.36 134.056 36.588C134.68 35.94 135.316 34.956 135.772 34.08L134.452 33.672ZM139.756 32.904C139.888 33.18 139.984 33.444 140.056 33.66L141.34 33.108C141.052 32.328 140.368 31.176 139.72 30.336L138.532 30.804C138.724 31.08 138.928 31.38 139.108 31.692C138.412 31.716 137.716 31.74 137.044 31.764C137.944 30.876 138.892 29.832 139.684 28.848L138.376 28.248C137.908 28.932 137.272 29.724 136.612 30.468C136.396 30.288 136.144 30.084 135.856 29.88C136.36 29.304 136.96 28.536 137.5 27.852L137.452 27.828C138.556 27.66 139.624 27.468 140.536 27.216L139.6 26.076C138.076 26.52 135.628 26.88 133.468 27.06C133.624 27.372 133.792 27.888 133.84 28.224C134.44 28.176 135.076 28.116 135.712 28.056C135.46 28.464 135.184 28.884 134.92 29.244C134.704 29.1 134.488 28.968 134.284 28.848L133.456 29.772C134.188 30.252 135.1 30.912 135.676 31.452C135.556 31.584 135.436 31.692 135.316 31.812L133.072 31.872L133.276 33.216L136.276 33.072V37.044H137.692V33.012L139.756 32.904ZM138.28 34.164C138.856 34.884 139.504 35.868 139.744 36.516L140.992 35.88C140.716 35.244 140.02 34.296 139.444 33.612L138.28 34.164ZM147.376 35.28C146.68 35.28 146.176 34.98 146.176 34.536C146.176 34.236 146.464 33.972 146.908 33.972C147.556 33.972 148 34.476 148.072 35.244C147.856 35.268 147.628 35.28 147.376 35.28ZM149.992 26.712C149.848 26.748 149.572 26.796 149.08 26.832C148.408 26.892 145.864 26.952 145.24 26.952C144.904 26.952 144.496 26.928 144.16 26.892L144.208 28.44C144.484 28.392 144.856 28.356 145.18 28.344C145.804 28.296 147.436 28.224 148.048 28.212C147.46 28.728 146.224 29.724 145.564 30.276C144.856 30.852 143.428 32.064 142.588 32.748L143.668 33.864C144.94 32.424 146.128 31.452 147.952 31.452C149.332 31.452 150.412 32.172 150.412 33.24C150.412 33.96 150.088 34.512 149.44 34.86C149.26 33.732 148.372 32.832 146.908 32.832C145.648 32.832 144.772 33.72 144.772 34.68C144.772 35.868 146.02 36.624 147.676 36.624C150.544 36.624 151.972 35.136 151.972 33.264C151.972 31.536 150.436 30.276 148.42 30.276C148.036 30.276 147.7 30.3 147.304 30.408C148.048 29.808 149.296 28.752 149.932 28.308C150.196 28.128 150.472 27.948 150.76 27.768L149.992 26.712ZM167.699 28.74V27.348H162.935V25.788H161.411V27.348H156.755V28.74H161.423V30H157.883V35.604H159.323V31.392H161.423V37.056H162.911V31.392H165.203V34.032C165.203 34.164 165.143 34.224 164.951 34.224C164.759 34.224 164.051 34.224 163.451 34.2C163.655 34.584 163.871 35.196 163.931 35.604C164.867 35.604 165.551 35.58 166.055 35.364C166.547 35.148 166.691 34.74 166.691 34.056V30H162.911V28.74H167.699ZM171.503 31.512V30.324H174.119C174.155 30.732 174.203 31.128 174.263 31.512H171.503ZM177.263 27.708V29.004H171.503V27.708H177.263ZM179.567 32.844V31.512H175.751C175.679 31.128 175.631 30.732 175.595 30.324H178.715V26.376H170.039V35.22C169.583 35.28 169.151 35.316 168.779 35.352L169.067 36.84C170.627 36.636 172.751 36.36 174.731 36.084L174.683 34.668C173.627 34.8 172.523 34.932 171.503 35.064V32.844H174.551C175.211 35.268 176.483 37.044 178.043 37.056C179.123 37.056 179.627 36.612 179.831 34.596C179.459 34.488 178.919 34.2 178.595 33.912C178.535 35.124 178.403 35.628 178.127 35.628C177.431 35.64 176.603 34.476 176.087 32.844H179.567ZM185.363 32.448C185.135 32.184 184.151 31.14 183.827 30.876V30.528H185.111V29.196H183.827V27.504C184.343 27.372 184.823 27.216 185.255 27.048L184.307 25.956C183.383 26.376 181.907 26.724 180.587 26.952C180.743 27.24 180.911 27.72 180.983 28.044C181.451 27.984 181.943 27.9 182.447 27.804V29.196H180.731V30.528H182.255C181.811 31.692 181.151 32.964 180.479 33.744C180.707 34.104 181.007 34.692 181.139 35.1C181.607 34.5 182.063 33.648 182.447 32.724V37.032H183.827V32.352C184.115 32.784 184.403 33.252 184.547 33.564L185.363 32.448ZM189.851 31.092H186.887V29.46H189.851V31.092ZM190.103 35.604C189.947 35.604 189.923 35.568 189.923 35.208V32.34H191.279V28.224H190.175C190.523 27.72 190.955 27 191.351 26.304L189.887 25.836C189.671 26.46 189.239 27.324 188.903 27.888L189.839 28.224H187.019L187.787 27.888C187.607 27.312 187.127 26.484 186.695 25.848L185.519 26.364C185.879 26.94 186.263 27.684 186.455 28.224H185.531V32.34H186.491C186.359 33.912 186.023 35.196 184.235 35.928C184.523 36.204 184.919 36.708 185.063 37.056C187.223 36.084 187.727 34.404 187.895 32.34H188.555V35.22C188.555 36.468 188.783 36.888 189.851 36.888H190.643C191.507 36.888 191.831 36.432 191.951 34.716C191.591 34.632 191.003 34.392 190.739 34.176C190.715 35.424 190.667 35.604 190.487 35.604H190.103ZM196.667 31.44C196.667 32.28 197.363 32.976 198.203 32.976C199.043 32.976 199.739 32.28 199.739 31.44C199.739 30.6 199.043 29.904 198.203 29.904C197.363 29.904 196.667 30.6 196.667 31.44ZM212.927 27.828H208.967V27.228H212.927V27.828ZM212.927 29.364H208.967V28.74H212.927V29.364ZM212.927 30.876H208.967V30.264H212.927V30.876ZM214.331 26.256H207.623V31.848H214.331V26.256ZM207.239 34.068C206.711 34.728 205.643 35.52 204.683 36C205.007 36.228 205.535 36.66 205.847 36.96C206.831 36.408 207.959 35.496 208.727 34.62L207.239 34.068ZM215.603 33.732V32.472H206.795V26.976H205.355V33.984H206.795V33.732H209.471V37.044H210.971V33.732H215.603ZM211.727 34.74C212.639 35.4 213.863 36.384 214.427 36.972L215.747 36.084C215.111 35.472 213.839 34.572 212.951 33.972L211.727 34.74ZM219.503 31.512V30.324H222.119C222.155 30.732 222.203 31.128 222.263 31.512H219.503ZM225.263 27.708V29.004H219.503V27.708H225.263ZM227.567 32.844V31.512H223.751C223.679 31.128 223.631 30.732 223.595 30.324H226.715V26.376H218.039V35.22C217.583 35.28 217.151 35.316 216.779 35.352L217.067 36.84C218.627 36.636 220.751 36.36 222.731 36.084L222.683 34.668C221.627 34.8 220.523 34.932 219.503 35.064V32.844H222.551C223.211 35.268 224.483 37.044 226.043 37.056C227.123 37.056 227.627 36.612 227.831 34.596C227.459 34.488 226.919 34.2 226.595 33.912C226.535 35.124 226.403 35.628 226.127 35.628C225.431 35.64 224.603 34.476 224.087 32.844H227.567ZM233.363 32.448C233.135 32.184 232.151 31.14 231.827 30.876V30.528H233.111V29.196H231.827V27.504C232.343 27.372 232.823 27.216 233.255 27.048L232.307 25.956C231.383 26.376 229.907 26.724 228.587 26.952C228.743 27.24 228.911 27.72 228.983 28.044C229.451 27.984 229.943 27.9 230.447 27.804V29.196H228.731V30.528H230.255C229.811 31.692 229.151 32.964 228.479 33.744C228.707 34.104 229.007 34.692 229.139 35.1C229.607 34.5 230.063 33.648 230.447 32.724V37.032H231.827V32.352C232.115 32.784 232.403 33.252 232.547 33.564L233.363 32.448ZM237.851 31.092H234.887V29.46H237.851V31.092ZM238.103 35.604C237.947 35.604 237.923 35.568 237.923 35.208V32.34H239.279V28.224H238.175C238.523 27.72 238.955 27 239.351 26.304L237.887 25.836C237.671 26.46 237.239 27.324 236.903 27.888L237.839 28.224H235.019L235.787 27.888C235.607 27.312 235.127 26.484 234.695 25.848L233.519 26.364C233.879 26.94 234.263 27.684 234.455 28.224H233.531V32.34H234.491C234.359 33.912 234.023 35.196 232.235 35.928C232.523 36.204 232.919 36.708 233.063 37.056C235.223 36.084 235.727 34.404 235.895 32.34H236.555V35.22C236.555 36.468 236.783 36.888 237.851 36.888H238.643C239.507 36.888 239.831 36.432 239.951 34.716C239.591 34.632 239.003 34.392 238.739 34.176C238.715 35.424 238.667 35.604 238.487 35.604H238.103ZM251.778 31.62H247.926L247.83 30.972L246.726 31.284V29.448H247.518V30.54H251.778V31.62ZM254.502 30.54V29.22H251.778V28.2H253.986V26.904H251.778V25.836H250.362V26.904H248.238V28.2H250.362V29.22H247.722V28.092H246.726V25.848H245.418V28.092H244.854C244.926 27.612 244.986 27.132 245.034 26.652L243.846 26.46C243.738 27.876 243.546 29.364 243.162 30.324C243.438 30.468 243.954 30.792 244.17 30.972C244.338 30.54 244.494 30.024 244.614 29.448H245.418V31.656C244.614 31.872 243.87 32.064 243.282 32.196L243.618 33.564C244.158 33.408 244.77 33.228 245.418 33.036V37.044H246.726V32.64C247.074 32.532 247.434 32.412 247.782 32.304V32.94H249.234L248.202 33.576C248.718 34.152 249.33 34.944 249.57 35.46L250.71 34.728C250.422 34.2 249.798 33.468 249.27 32.94H251.778V35.424C251.778 35.58 251.73 35.616 251.526 35.628C251.334 35.628 250.686 35.628 250.086 35.604C250.278 36 250.47 36.612 250.518 37.02C251.418 37.02 252.09 36.996 252.582 36.78C253.062 36.552 253.182 36.168 253.182 35.448V32.94H254.394V31.62H253.182V30.54H254.502ZM257.25 27.648H259.506V29.292H257.25V27.648ZM258.474 31.548C258.498 31.224 258.522 30.888 258.546 30.564H260.886V26.388H255.954V30.564H257.154C257.058 32.556 256.818 34.716 255.246 36.012C255.582 36.252 255.99 36.696 256.194 37.056C257.466 35.976 258.03 34.44 258.306 32.796H259.638C259.554 34.692 259.446 35.46 259.266 35.664C259.158 35.796 259.05 35.82 258.87 35.82C258.654 35.82 258.174 35.82 257.694 35.76C257.898 36.108 258.042 36.624 258.054 36.996C258.63 37.02 259.182 37.008 259.506 36.96C259.89 36.912 260.166 36.804 260.406 36.516C260.742 36.108 260.862 34.956 260.982 32.064C260.982 31.896 260.994 31.548 260.994 31.548H258.474ZM263.178 27.288H261.786V34.044H263.178V27.288ZM264.606 26.076V35.316C264.606 35.532 264.51 35.604 264.282 35.604C264.03 35.604 263.262 35.604 262.482 35.58C262.698 35.976 262.914 36.636 262.974 37.056C264.066 37.056 264.87 37.008 265.362 36.78C265.854 36.552 266.022 36.156 266.022 35.316V26.076H264.606ZM269.154 25.836C268.758 26.58 267.918 27.528 267.174 28.116C267.402 28.368 267.726 28.908 267.882 29.208C268.794 28.476 269.79 27.348 270.438 26.304L269.154 25.836ZM274.602 34.416C274.098 34.452 273.606 34.5 273.114 34.536V33.696H274.35V32.628H273.114V31.824H274.482V31.296C274.65 31.536 274.806 31.776 274.89 31.92C275.01 31.752 275.13 31.572 275.238 31.38C275.382 32.232 275.562 33.036 275.802 33.768C275.49 34.368 275.106 34.896 274.614 35.34L274.602 34.416ZM276.834 29.376C276.75 30.384 276.618 31.296 276.414 32.112C276.21 31.368 276.066 30.564 275.958 29.736C275.994 29.616 276.042 29.496 276.078 29.376H276.834ZM278.55 29.376V28.176H276.402C276.558 27.48 276.69 26.76 276.798 26.04L275.49 25.848C275.334 27.252 275.058 28.632 274.602 29.724V26.868H273.594V28.944H273.066V25.848H271.914V28.944H271.398V26.856H270.438V28.74L269.346 28.344C268.806 29.52 267.93 30.744 267.09 31.548C267.318 31.836 267.714 32.544 267.846 32.844C268.074 32.604 268.314 32.34 268.542 32.052V37.044H269.838V30.18C270.054 29.82 270.258 29.448 270.438 29.088V30.036H274.47C274.35 30.288 274.218 30.516 274.086 30.72H270.486V31.824H271.914V32.628H270.666V33.696H271.914V34.62L270.222 34.728L270.402 35.94C271.518 35.832 272.97 35.688 274.386 35.532C274.11 35.748 273.822 35.94 273.498 36.12C273.762 36.348 274.23 36.84 274.398 37.08C275.226 36.564 275.874 35.94 276.39 35.184C276.762 35.904 277.242 36.504 277.83 36.972C278.022 36.624 278.418 36.132 278.694 35.904C278.01 35.448 277.482 34.764 277.074 33.936C277.602 32.688 277.902 31.188 278.07 29.376H278.55ZM289.254 26.592L289.014 26.64H284.118V28.044H288.594C288.318 29.616 287.838 31.008 287.202 32.196C286.59 31.008 286.158 29.616 285.87 28.128L284.502 28.38C284.91 30.372 285.474 32.136 286.29 33.6C285.558 34.536 284.682 35.28 283.698 35.772V25.908H282.306V32.616L281.394 32.832V27.228H280.062V33.144C279.762 33.204 279.486 33.264 279.234 33.312L279.558 34.776C280.374 34.56 281.346 34.308 282.306 34.032V37.032H283.698V35.808C284.034 36.084 284.43 36.66 284.646 37.02C285.606 36.48 286.446 35.784 287.178 34.944C287.85 35.796 288.666 36.492 289.65 37.032C289.866 36.636 290.334 36.06 290.67 35.784C289.638 35.292 288.798 34.56 288.114 33.66C289.182 31.92 289.902 29.676 290.226 26.868L289.254 26.592ZM296.082 32.448C295.854 32.184 294.87 31.14 294.546 30.876V30.528H295.83V29.196H294.546V27.504C295.062 27.372 295.542 27.216 295.974 27.048L295.026 25.956C294.102 26.376 292.626 26.724 291.306 26.952C291.462 27.24 291.63 27.72 291.702 28.044C292.17 27.984 292.662 27.9 293.166 27.804V29.196H291.45V30.528H292.974C292.53 31.692 291.87 32.964 291.198 33.744C291.426 34.104 291.726 34.692 291.858 35.1C292.326 34.5 292.782 33.648 293.166 32.724V37.032H294.546V32.352C294.834 32.784 295.122 33.252 295.266 33.564L296.082 32.448ZM300.57 31.092H297.606V29.46H300.57V31.092ZM300.822 35.604C300.666 35.604 300.642 35.568 300.642 35.208V32.34H301.998V28.224H300.894C301.242 27.72 301.674 27 302.07 26.304L300.606 25.836C300.39 26.46 299.958 27.324 299.622 27.888L300.558 28.224H297.738L298.506 27.888C298.326 27.312 297.846 26.484 297.414 25.848L296.238 26.364C296.598 26.94 296.982 27.684 297.174 28.224H296.25V32.34H297.21C297.078 33.912 296.742 35.196 294.954 35.928C295.242 36.204 295.638 36.708 295.782 37.056C297.942 36.084 298.446 34.404 298.614 32.34H299.274V35.22C299.274 36.468 299.502 36.888 300.57 36.888H301.362C302.226 36.888 302.55 36.432 302.67 34.716C302.31 34.632 301.722 34.392 301.458 34.176C301.434 35.424 301.386 35.604 301.206 35.604H300.822ZM312.738 30.132H310.362V29.4H312.738V30.132ZM312.738 31.848H310.362V31.116H312.738V31.848ZM312.738 33.6H310.362V32.856H312.738V33.6ZM309.078 28.332V34.656H314.082V28.332H311.958C312.054 28.08 312.15 27.804 312.246 27.516H314.322V26.304H308.718V27.516H310.734C310.686 27.78 310.638 28.068 310.59 28.332H309.078ZM304.626 27.936H307.494V28.764H308.682V26.832H306.726V25.86H305.394V26.832H303.474V28.764H304.626V27.936ZM306.786 35.244H305.334V34.14H306.786V35.244ZM305.358 33.036C305.718 32.808 306.054 32.544 306.366 32.256C306.726 32.532 307.086 32.796 307.386 33.036H305.358ZM306.798 29.844C306.63 30.144 306.438 30.432 306.21 30.696L305.382 30.156C305.466 30.048 305.55 29.952 305.634 29.844H306.798ZM307.998 33.54L308.022 33.564L308.826 32.568C308.43 32.232 307.842 31.8 307.206 31.368C307.698 30.744 308.106 30.024 308.382 29.208L307.578 28.836L307.362 28.896H306.246C306.354 28.716 306.438 28.536 306.522 28.344L305.358 28.056C304.926 29.064 304.098 29.976 303.162 30.564C303.426 30.732 303.87 31.164 304.062 31.392C304.242 31.272 304.41 31.128 304.578 30.984L305.37 31.536C304.71 32.088 303.954 32.52 303.162 32.796C303.414 33.024 303.726 33.504 303.882 33.816L304.134 33.708V36.816H305.334V36.336H307.998C308.238 36.564 308.502 36.828 308.658 37.02C309.534 36.672 310.59 36.036 311.214 35.424L310.062 34.704C309.63 35.148 308.79 35.7 307.998 36.024V33.54ZM311.742 35.412C312.39 35.892 313.23 36.6 313.614 37.056L314.718 36.324C314.286 35.868 313.41 35.208 312.774 34.764L311.742 35.412ZM316.866 36.168C317.502 36.168 317.97 35.664 317.97 35.016C317.97 34.368 317.502 33.864 316.866 33.864C316.242 33.864 315.774 34.368 315.774 35.016C315.774 35.664 316.242 36.168 316.866 36.168ZM320.768 36.168C321.404 36.168 321.872 35.664 321.872 35.016C321.872 34.368 321.404 33.864 320.768 33.864C320.144 33.864 319.676 34.368 319.676 35.016C319.676 35.664 320.144 36.168 320.768 36.168ZM324.671 36.168C325.307 36.168 325.775 35.664 325.775 35.016C325.775 34.368 325.307 33.864 324.671 33.864C324.047 33.864 323.579 34.368 323.579 35.016C323.579 35.664 324.047 36.168 324.671 36.168Z" fill="#1B322F"/>
<rect x="19" y="56" width="301" height="21" fill="#1B322F" fill-opacity="0.16"/>
<rect x="19" y="111" width="19" height="47" fill="#1B322F" fill-opacity="0.16"/>
<rect x="46" y="111" width="133" height="14" fill="#1B322F" fill-opacity="0.16"/>
<rect x="187" y="111" width="133" height="14" fill="#1B322F" fill-opacity="0.16"/>
<rect x="46" y="127" width="133" height="14" fill="#1B322F" fill-opacity="0.16"/>
<rect x="187" y="127" width="133" height="14" fill="#1B322F" fill-opacity="0.16"/>
<rect x="46" y="144" width="133" height="14" fill="#1B322F" fill-opacity="0.16"/>
<rect x="187" y="144" width="133" height="14" fill="#1B322F" fill-opacity="0.16"/>
<rect x="251" y="82" width="69" height="23" fill="#1B322F" fill-opacity="0.16"/>
</svg>
