<svg width="340" height="175" viewBox="0 0 340 175" fill="none" xmlns="http://www.w3.org/2000/svg">
<rect width="340" height="175" rx="5" fill="#FCFCFC"/>
<rect x="2" y="2" width="336" height="171" rx="3" stroke="#1B322F" stroke-opacity="0.16" stroke-width="4"/>
<path d="M133.065 28.07C132.945 29.33 132.705 30.665 132.27 31.55C132.66 31.685 133.32 32 133.635 32.195C134.07 31.235 134.385 29.735 134.535 28.325L133.065 28.07ZM136.32 28.34C136.665 29.225 137.055 30.38 137.19 31.13L138.51 30.65C138.345 29.9 137.955 28.805 137.58 27.95L136.32 28.34ZM136.005 24.635C136.185 24.965 136.365 25.34 136.53 25.715L135.09 25.775C136.035 24.56 137.07 23.045 137.895 21.74L136.44 21.065C136.095 21.8 135.615 22.655 135.105 23.495C134.955 23.3 134.775 23.105 134.595 22.895C135.135 22.07 135.735 20.9 136.275 19.88L134.73 19.31C134.475 20.105 134.055 21.095 133.635 21.92C133.515 21.815 133.395 21.71 133.29 21.62L132.435 22.835C133.05 23.435 133.77 24.23 134.205 24.875C133.965 25.22 133.725 25.55 133.5 25.835L132.42 25.88L132.57 27.425L134.745 27.29V33.32H136.29V27.185L137.055 27.125C137.145 27.41 137.205 27.665 137.25 27.89L138.51 27.32C138.345 26.465 137.76 25.16 137.19 24.14L136.005 24.635ZM143.82 28.595V30.935H140.52V28.595H143.82ZM138.87 33.29H140.52V32.495H143.82V33.23H145.53V27.02H138.87V33.29ZM139.935 24.08C140.79 23.165 141.51 22.145 142.02 21.305C142.56 22.145 143.37 23.165 144.225 24.08H139.935ZM141.12 19.505C140.385 20.915 138.855 22.88 137.34 23.975C137.685 24.365 138.135 25.07 138.36 25.535C138.81 25.19 139.245 24.8 139.665 24.365V25.7H144.6V24.47C144.96 24.83 145.335 25.16 145.695 25.445C145.995 24.89 146.415 24.23 146.79 23.78C145.335 22.865 143.82 21.08 142.815 19.505H141.12ZM161.28 27.77H158.565C158.64 27.05 158.715 26.225 158.79 25.295C158.82 25.07 158.85 24.53 158.85 24.53H152.055C152.175 24.005 152.28 23.45 152.385 22.895H159.645V21.185H152.7C152.805 20.585 152.91 20 153 19.445L151.14 19.28C150.795 21.65 150.18 24.755 149.67 26.66L151.56 26.81L151.71 26.18H156.9C156.855 26.765 156.81 27.29 156.75 27.77H147.765V29.48H156.51C156.315 30.545 156.09 31.145 155.82 31.37C155.61 31.55 155.4 31.58 155.085 31.58C154.65 31.58 153.645 31.565 152.61 31.475C152.955 31.985 153.21 32.735 153.24 33.26C154.23 33.305 155.22 33.32 155.79 33.26C156.48 33.185 156.915 33.035 157.365 32.54C157.785 32.09 158.1 31.19 158.355 29.48H161.28V27.77ZM166.65 21.725V23.84H164.715V21.725H166.65ZM164.715 27.65V25.43H166.65V27.65H164.715ZM168.3 29.27V20.105H163.065V30.56H164.715V29.27H168.3ZM171.015 26.99C171.075 26.405 171.09 25.835 171.09 25.295V25.07H174.315V26.99H171.015ZM174.315 21.545V23.465H171.09V21.545H174.315ZM176.085 19.895H169.335V25.295C169.335 27.575 169.11 30.365 166.59 32.225C166.965 32.45 167.655 33.065 167.925 33.41C169.605 32.18 170.415 30.395 170.79 28.595H174.315V31.235C174.315 31.49 174.225 31.58 173.955 31.58C173.7 31.595 172.785 31.61 171.975 31.565C172.23 32.015 172.53 32.795 172.605 33.29C173.85 33.29 174.705 33.245 175.305 32.96C175.89 32.675 176.085 32.195 176.085 31.25V19.895ZM178.065 28.04C177.945 29.3 177.72 30.65 177.3 31.52C177.675 31.655 178.35 31.97 178.65 32.18C179.085 31.22 179.4 29.72 179.55 28.295L178.065 28.04ZM188.1 30.665V27.14H189.405V30.665H188.1ZM185.295 27.14H186.54V30.665H185.295V27.14ZM186.54 22.07V25.52H185.295V22.07H186.54ZM189.405 25.52H188.1V22.07H189.405V25.52ZM183.72 20.42V26.525C183.435 25.745 182.97 24.83 182.505 24.065L181.215 24.635C181.38 24.905 181.53 25.22 181.68 25.52L180.285 25.625C181.215 24.44 182.22 23.015 183.015 21.785L181.56 21.08C181.2 21.815 180.705 22.685 180.18 23.525C180.03 23.33 179.835 23.105 179.64 22.88C180.165 22.055 180.795 20.9 181.32 19.865L179.745 19.295C179.49 20.075 179.055 21.065 178.635 21.905C178.515 21.785 178.395 21.68 178.275 21.575L177.435 22.79C178.08 23.405 178.83 24.215 179.265 24.89C179.055 25.19 178.83 25.475 178.62 25.745C178.185 25.775 177.765 25.805 177.405 25.82L177.66 27.395C178.305 27.32 179.025 27.245 179.79 27.17V33.29H181.38V26.99L182.25 26.9C182.37 27.26 182.475 27.59 182.535 27.875L183.72 27.32V30.74C183.51 29.945 183.15 28.85 182.76 27.98L181.425 28.415C181.785 29.345 182.19 30.575 182.31 31.355L183.72 30.875V33.08H185.295V32.27H189.405V32.945H191.055V20.42H183.72ZM202.785 29.615V30.155H196.365V29.615H202.785ZM196.365 31.775V31.19H202.785V31.775H196.365ZM194.64 33.35H196.365V32.9H202.785V33.335H204.585V28.475H194.64V33.35ZM200.325 23.015H202.74V23.585H200.325V23.015ZM200.325 21.23H202.74V21.785H200.325V21.23ZM204.51 24.62V23.015H206.22V21.785H204.51V20.195H200.325V19.25H198.54V20.195H194.31V21.23H198.54V21.785H192.78V23.015H198.54V23.585H194.145V24.62H198.54V25.145H193.815V26.225H198.54V26.765H192.765V28.01H206.22V26.765H200.325V26.225H205.125V25.145H200.325V24.62H204.51Z" fill="#1B322F"/>
<path d="M261.168 31H263.052L264 29.032C264.216 28.576 264.42 28.108 264.648 27.568H264.696C264.96 28.108 265.164 28.576 265.392 29.032L266.388 31H268.356L265.86 26.5L268.2 22.12H266.328L265.488 23.944C265.296 24.364 265.116 24.796 264.9 25.348H264.84C264.576 24.796 264.384 24.364 264.18 23.944L263.292 22.12H261.324L263.664 26.416L261.168 31ZM268.691 31H270.575L271.523 29.032C271.739 28.576 271.943 28.108 272.171 27.568H272.219C272.483 28.108 272.687 28.576 272.915 29.032L273.911 31H275.879L273.383 26.5L275.723 22.12H273.851L273.011 23.944C272.819 24.364 272.639 24.796 272.423 25.348H272.363C272.099 24.796 271.907 24.364 271.703 23.944L270.815 22.12H268.847L271.187 26.416L268.691 31ZM276.215 31H278.099L279.047 29.032C279.263 28.576 279.467 28.108 279.695 27.568H279.743C280.007 28.108 280.211 28.576 280.439 29.032L281.435 31H283.403L280.907 26.5L283.247 22.12H281.375L280.535 23.944C280.343 24.364 280.163 24.796 279.947 25.348H279.887C279.623 24.796 279.431 24.364 279.227 23.944L278.339 22.12H276.371L278.711 26.416L276.215 31ZM283.738 31H285.622L286.57 29.032C286.786 28.576 286.99 28.108 287.218 27.568H287.266C287.53 28.108 287.734 28.576 287.962 29.032L288.958 31H290.926L288.43 26.5L290.77 22.12H288.898L288.058 23.944C287.866 24.364 287.686 24.796 287.47 25.348H287.41C287.146 24.796 286.954 24.364 286.75 23.944L285.862 22.12H283.894L286.234 26.416L283.738 31ZM293.038 31.168C293.674 31.168 294.142 30.664 294.142 30.016C294.142 29.368 293.674 28.864 293.038 28.864C292.414 28.864 291.946 29.368 291.946 30.016C291.946 30.664 292.414 31.168 293.038 31.168ZM295.164 31H297.048L297.996 29.032C298.212 28.576 298.416 28.108 298.644 27.568H298.692C298.956 28.108 299.16 28.576 299.388 29.032L300.384 31H302.352L299.856 26.5L302.196 22.12H300.324L299.484 23.944C299.292 24.364 299.112 24.796 298.896 25.348H298.836C298.572 24.796 298.38 24.364 298.176 23.944L297.288 22.12H295.32L297.66 26.416L295.164 31ZM302.688 31H304.572L305.52 29.032C305.736 28.576 305.94 28.108 306.168 27.568H306.216C306.48 28.108 306.684 28.576 306.912 29.032L307.908 31H309.876L307.38 26.5L309.72 22.12H307.848L307.008 23.944C306.816 24.364 306.636 24.796 306.42 25.348H306.36C306.096 24.796 305.904 24.364 305.7 23.944L304.812 22.12H302.844L305.184 26.416L302.688 31Z" fill="#1B322F"/>
<rect x="34" y="56" width="19" height="49" fill="#1B322F" fill-opacity="0.16"/>
<rect x="34" y="111" width="19" height="47" fill="#1B322F" fill-opacity="0.16"/>
<rect x="61" y="111" width="133" height="14" fill="#1B322F" fill-opacity="0.16"/>
<rect x="61" y="127" width="133" height="14" fill="#1B322F" fill-opacity="0.16"/>
<rect x="61" y="144" width="133" height="14" fill="#1B322F" fill-opacity="0.16"/>
<rect x="61" y="57" width="55" height="14" fill="#1B322F" fill-opacity="0.16"/>
<rect x="124" y="57" width="55" height="14" fill="#1B322F" fill-opacity="0.16"/>
<rect x="187" y="57" width="55" height="14" fill="#1B322F" fill-opacity="0.16"/>
<rect x="61" y="73" width="55" height="14" fill="#1B322F" fill-opacity="0.16"/>
<rect x="124" y="73" width="55" height="14" fill="#1B322F" fill-opacity="0.16"/>
<rect x="187" y="73" width="55" height="14" fill="#1B322F" fill-opacity="0.16"/>
<rect x="61" y="90" width="55" height="14" fill="#1B322F" fill-opacity="0.16"/>
<rect x="124" y="90" width="55" height="14" fill="#1B322F" fill-opacity="0.16"/>
<rect x="187" y="90" width="55" height="14" fill="#1B322F" fill-opacity="0.16"/>
<rect x="250" y="57" width="55" height="14" fill="#1B322F" fill-opacity="0.16"/>
<rect x="250" y="73" width="55" height="14" fill="#1B322F" fill-opacity="0.16"/>
<rect x="250" y="90" width="55" height="14" fill="#1B322F" fill-opacity="0.16"/>
<rect x="236" y="113" width="69" height="14" fill="#1B322F" fill-opacity="0.16"/>
<rect x="236.5" y="127.5" width="68" height="30" stroke="#1B322F" stroke-opacity="0.16"/>
</svg>
